<?xml version="1.0" standalone="no"?>
<!DOCTYPE svg PUBLIC "-//W3C//DTD SVG 20010904//EN"
 "http://www.w3.org/TR/2001/REC-SVG-20010904/DTD/svg10.dtd">
<svg version="1.0" xmlns="http://www.w3.org/2000/svg"
 width="6144.000000pt" height="512.000000pt" viewBox="0 0 6144.000000 512.000000"
 preserveAspectRatio="xMidYMid meet">

<g transform="translate(0.000000,512.000000) scale(0.100000,-0.100000)"
fill="#000000" stroke="none">
<path d="M0 2560 l0 -2560 30720 0 30720 0 0 2560 0 2560 -30720 0 -30720 0 0
-2560z m2925 1855 c140 -22 302 -66 425 -114 166 -66 360 -176 360 -205 0 -15
160 -179 269 -276 59 -53 79 -79 112 -145 55 -115 79 -217 79 -339 0 -56 -5
-121 -11 -145 -13 -58 -52 -140 -89 -186 -33 -42 -39 -88 -15 -115 17 -19 76
-220 102 -347 27 -134 25 -462 -5 -596 -44 -200 -124 -395 -225 -549 -63 -97
-192 -254 -245 -298 -40 -33 -164 -78 -170 -61 -21 63 -110 130 -216 164 -94
29 -263 31 -346 3 -136 -46 -240 -124 -262 -197 l-11 -39 -119 0 -118 0 0 29
c0 112 -238 241 -444 241 -64 0 -158 -22 -229 -54 -58 -25 -147 -99 -147 -122
0 -24 -21 -25 -85 -4 -58 19 -73 31 -155 117 -204 216 -356 517 -404 804 -19
113 -23 420 -6 526 15 92 54 244 86 334 41 113 42 148 6 211 -95 167 -88 393
18 614 34 71 50 90 122 152 75 64 187 175 293 293 29 32 75 62 170 111 206
105 426 172 666 203 142 18 452 13 594 -10z m5120 0 c140 -22 302 -66 425
-114 166 -66 360 -176 360 -205 0 -15 160 -179 269 -276 59 -53 79 -79 112
-145 55 -115 79 -217 79 -339 0 -56 -5 -121 -11 -145 -13 -58 -52 -140 -89
-186 -33 -42 -39 -88 -15 -115 17 -19 76 -220 102 -347 27 -134 25 -462 -5
-596 -44 -200 -124 -395 -225 -549 -63 -97 -192 -254 -245 -298 -40 -33 -164
-78 -170 -61 -21 63 -110 130 -216 164 -94 29 -263 31 -346 3 -136 -46 -240
-124 -262 -197 l-11 -39 -119 0 -118 0 0 29 c0 112 -238 241 -444 241 -64 0
-158 -22 -229 -54 -58 -25 -147 -99 -147 -122 0 -24 -21 -25 -85 -4 -58 19
-73 31 -155 117 -204 216 -356 517 -404 804 -19 113 -23 420 -6 526 15 92 54
244 86 334 41 113 42 148 6 211 -95 167 -88 393 18 614 34 71 50 90 122 152
75 64 187 175 293 293 29 32 75 62 170 111 206 105 426 172 666 203 142 18
452 13 594 -10z m5120 0 c140 -22 302 -66 425 -114 166 -66 360 -176 360 -205
0 -15 160 -179 269 -276 59 -53 79 -79 112 -145 55 -115 79 -217 79 -339 0
-56 -5 -121 -11 -145 -13 -58 -52 -140 -89 -186 -33 -42 -39 -88 -15 -115 17
-19 76 -220 102 -347 27 -134 25 -462 -5 -596 -44 -200 -124 -395 -225 -549
-63 -97 -192 -254 -245 -298 -40 -33 -164 -78 -170 -61 -21 63 -110 130 -216
164 -94 29 -263 31 -346 3 -136 -46 -240 -124 -262 -197 l-11 -39 -119 0 -118
0 0 29 c0 112 -238 241 -444 241 -64 0 -158 -22 -229 -54 -58 -25 -147 -99
-147 -122 0 -24 -21 -25 -85 -4 -58 19 -73 31 -155 117 -204 216 -356 517
-404 804 -19 113 -23 420 -6 526 15 92 54 244 86 334 41 113 42 148 6 211 -95
167 -88 393 18 614 34 71 50 90 122 152 75 64 187 175 293 293 29 32 75 62
170 111 206 105 426 172 666 203 142 18 452 13 594 -10z m5120 0 c140 -22 302
-66 425 -114 166 -66 360 -176 360 -205 0 -15 160 -179 269 -276 59 -53 79
-79 112 -145 55 -115 79 -217 79 -339 0 -56 -5 -121 -11 -145 -13 -58 -52
-140 -89 -186 -33 -42 -39 -88 -15 -115 17 -19 76 -220 102 -347 27 -134 25
-462 -5 -596 -44 -200 -124 -395 -225 -549 -63 -97 -192 -254 -245 -298 -40
-33 -164 -78 -170 -61 -21 63 -110 130 -216 164 -94 29 -263 31 -346 3 -136
-46 -240 -124 -262 -197 l-11 -39 -119 0 -118 0 0 29 c0 112 -238 241 -444
241 -64 0 -158 -22 -229 -54 -58 -25 -147 -99 -147 -122 0 -24 -21 -25 -85 -4
-58 19 -73 31 -155 117 -204 216 -356 517 -404 804 -19 113 -23 420 -6 526 15
92 54 244 86 334 41 113 42 148 6 211 -95 167 -88 393 18 614 34 71 50 90 122
152 75 64 187 175 293 293 29 32 75 62 170 111 206 105 426 172 666 203 142
18 452 13 594 -10z m5120 0 c140 -22 302 -66 425 -114 166 -66 360 -176 360
-205 0 -15 160 -179 269 -276 59 -53 79 -79 112 -145 55 -115 79 -217 79 -339
0 -56 -5 -121 -11 -145 -13 -58 -52 -140 -89 -186 -33 -42 -39 -88 -15 -115
17 -19 76 -220 102 -347 27 -134 25 -462 -5 -596 -44 -200 -124 -395 -225
-549 -63 -97 -192 -254 -245 -298 -40 -33 -164 -78 -170 -61 -21 63 -110 130
-216 164 -94 29 -263 31 -346 3 -136 -46 -240 -124 -262 -197 l-11 -39 -119 0
-118 0 0 29 c0 112 -238 241 -444 241 -64 0 -158 -22 -229 -54 -58 -25 -147
-99 -147 -122 0 -24 -21 -25 -85 -4 -58 19 -73 31 -155 117 -204 216 -356 517
-404 804 -19 113 -23 420 -6 526 15 92 54 244 86 334 41 113 42 148 6 211 -95
167 -88 393 18 614 34 71 50 90 122 152 75 64 187 175 293 293 29 32 75 62
170 111 206 105 426 172 666 203 142 18 452 13 594 -10z m5120 0 c140 -22 302
-66 425 -114 166 -66 360 -176 360 -205 0 -15 160 -179 269 -276 59 -53 79
-79 112 -145 55 -115 79 -217 79 -339 0 -56 -5 -121 -11 -145 -13 -58 -52
-140 -89 -186 -33 -42 -39 -88 -15 -115 17 -19 76 -220 102 -347 27 -134 25
-462 -5 -596 -44 -200 -124 -395 -225 -549 -63 -97 -192 -254 -245 -298 -40
-33 -164 -78 -170 -61 -21 63 -110 130 -216 164 -94 29 -263 31 -346 3 -136
-46 -240 -124 -262 -197 l-11 -39 -119 0 -118 0 0 29 c0 112 -238 241 -444
241 -64 0 -158 -22 -229 -54 -58 -25 -147 -99 -147 -122 0 -24 -21 -25 -85 -4
-58 19 -73 31 -155 117 -204 216 -356 517 -404 804 -19 113 -23 420 -6 526 15
92 54 244 86 334 41 113 42 148 6 211 -95 167 -88 393 18 614 34 71 50 90 122
152 75 64 187 175 293 293 29 32 75 62 170 111 206 105 426 172 666 203 142
18 452 13 594 -10z m5120 0 c140 -22 302 -66 425 -114 166 -66 360 -176 360
-205 0 -15 160 -179 269 -276 59 -53 79 -79 112 -145 55 -115 79 -217 79 -339
0 -56 -5 -121 -11 -145 -13 -58 -52 -140 -89 -186 -33 -42 -39 -88 -15 -115
17 -19 76 -220 102 -347 27 -134 25 -462 -5 -596 -44 -200 -124 -395 -225
-549 -63 -97 -192 -254 -245 -298 -40 -33 -164 -78 -170 -61 -21 63 -110 130
-216 164 -94 29 -263 31 -346 3 -136 -46 -240 -124 -262 -197 l-11 -39 -119 0
-118 0 0 29 c0 112 -238 241 -444 241 -64 0 -158 -22 -229 -54 -58 -25 -147
-99 -147 -122 0 -24 -21 -25 -85 -4 -58 19 -73 31 -155 117 -204 216 -356 517
-404 804 -19 113 -23 420 -6 526 15 92 54 244 86 334 41 113 42 148 6 211 -95
167 -88 393 18 614 34 71 50 90 122 152 75 64 187 175 293 293 29 32 75 62
170 111 206 105 426 172 666 203 142 18 452 13 594 -10z m5120 0 c140 -22 302
-66 425 -114 166 -66 360 -176 360 -205 0 -15 160 -179 269 -276 59 -53 79
-79 112 -145 55 -115 79 -217 79 -339 0 -56 -5 -121 -11 -145 -13 -58 -52
-140 -89 -186 -33 -42 -39 -88 -15 -115 17 -19 76 -220 102 -347 27 -134 25
-462 -5 -596 -44 -200 -124 -395 -225 -549 -63 -97 -192 -254 -245 -298 -40
-33 -164 -78 -170 -61 -21 63 -110 130 -216 164 -94 29 -263 31 -346 3 -136
-46 -240 -124 -262 -197 l-11 -39 -119 0 -118 0 0 29 c0 112 -238 241 -444
241 -64 0 -158 -22 -229 -54 -58 -25 -147 -99 -147 -122 0 -24 -21 -25 -85 -4
-58 19 -73 31 -155 117 -204 216 -356 517 -404 804 -19 113 -23 420 -6 526 15
92 54 244 86 334 41 113 42 148 6 211 -95 167 -88 393 18 614 34 71 50 90 122
152 75 64 187 175 293 293 29 32 75 62 170 111 206 105 426 172 666 203 142
18 452 13 594 -10z m5120 0 c140 -22 302 -66 425 -114 166 -66 360 -176 360
-205 0 -15 160 -179 269 -276 59 -53 79 -79 112 -145 55 -115 79 -217 79 -339
0 -56 -5 -121 -11 -145 -13 -58 -52 -140 -89 -186 -33 -42 -39 -88 -15 -115
17 -19 76 -220 102 -347 27 -134 25 -462 -5 -596 -44 -200 -124 -395 -225
-549 -63 -97 -192 -254 -245 -298 -40 -33 -164 -78 -170 -61 -21 63 -110 130
-216 164 -94 29 -263 31 -346 3 -136 -46 -240 -124 -262 -197 l-11 -39 -119 0
-118 0 0 29 c0 112 -238 241 -444 241 -64 0 -158 -22 -229 -54 -58 -25 -147
-99 -147 -122 0 -24 -21 -25 -85 -4 -58 19 -73 31 -155 117 -204 216 -356 517
-404 804 -19 113 -23 420 -6 526 15 92 54 244 86 334 41 113 42 148 6 211 -95
167 -88 393 18 614 34 71 50 90 122 152 75 64 187 175 293 293 29 32 75 62
170 111 206 105 426 172 666 203 142 18 452 13 594 -10z m5120 0 c140 -22 302
-66 425 -114 166 -66 360 -176 360 -205 0 -15 160 -179 269 -276 59 -53 79
-79 112 -145 55 -115 79 -217 79 -339 0 -56 -5 -121 -11 -145 -13 -58 -52
-140 -89 -186 -33 -42 -39 -88 -15 -115 17 -19 76 -220 102 -347 27 -134 25
-462 -5 -596 -44 -200 -124 -395 -225 -549 -63 -97 -192 -254 -245 -298 -40
-33 -164 -78 -170 -61 -21 63 -110 130 -216 164 -94 29 -263 31 -346 3 -136
-46 -240 -124 -262 -197 l-11 -39 -119 0 -118 0 0 29 c0 112 -238 241 -444
241 -64 0 -158 -22 -229 -54 -58 -25 -147 -99 -147 -122 0 -24 -21 -25 -85 -4
-58 19 -73 31 -155 117 -204 216 -356 517 -404 804 -19 113 -23 420 -6 526 15
92 54 244 86 334 41 113 42 148 6 211 -95 167 -88 393 18 614 34 71 50 90 122
152 75 64 187 175 293 293 29 32 75 62 170 111 206 105 426 172 666 203 142
18 452 13 594 -10z m5120 0 c140 -22 302 -66 425 -114 166 -66 360 -176 360
-205 0 -15 160 -179 269 -276 59 -53 79 -79 112 -145 55 -115 79 -217 79 -339
0 -56 -5 -121 -11 -145 -13 -58 -52 -140 -89 -186 -33 -42 -39 -88 -15 -115
17 -19 76 -220 102 -347 27 -134 25 -462 -5 -596 -44 -200 -124 -395 -225
-549 -63 -97 -192 -254 -245 -298 -40 -33 -164 -78 -170 -61 -21 63 -110 130
-216 164 -94 29 -263 31 -346 3 -136 -46 -240 -124 -262 -197 l-11 -39 -119 0
-118 0 0 29 c0 112 -238 241 -444 241 -64 0 -158 -22 -229 -54 -58 -25 -147
-99 -147 -122 0 -24 -21 -25 -85 -4 -58 19 -73 31 -155 117 -204 216 -356 517
-404 804 -19 113 -23 420 -6 526 15 92 54 244 86 334 41 113 42 148 6 211 -95
167 -88 393 18 614 34 71 50 90 122 152 75 64 187 175 293 293 29 32 75 62
170 111 206 105 426 172 666 203 142 18 452 13 594 -10z m5120 0 c140 -22 302
-66 425 -114 166 -66 360 -176 360 -205 0 -15 160 -179 269 -276 59 -53 79
-79 112 -145 55 -115 79 -217 79 -339 0 -56 -5 -121 -11 -145 -13 -58 -52
-140 -89 -186 -33 -42 -39 -88 -15 -115 17 -19 76 -220 102 -347 27 -134 25
-462 -5 -596 -44 -200 -124 -395 -225 -549 -63 -97 -192 -254 -245 -298 -40
-33 -164 -78 -170 -61 -21 63 -110 130 -216 164 -94 29 -263 31 -346 3 -136
-46 -240 -124 -262 -197 l-11 -39 -119 0 -118 0 0 29 c0 112 -238 241 -444
241 -64 0 -158 -22 -229 -54 -58 -25 -147 -99 -147 -122 0 -24 -21 -25 -85 -4
-58 19 -73 31 -155 117 -204 216 -356 517 -404 804 -19 113 -23 420 -6 526 15
92 54 244 86 334 41 113 42 148 6 211 -95 167 -88 393 18 614 34 71 50 90 122
152 75 64 187 175 293 293 29 32 75 62 170 111 206 105 426 172 666 203 142
18 452 13 594 -10z m-57813 -293 c-31 -42 -284 -284 -315 -301 -25 -13 -29
-13 -52 9 -14 13 -25 30 -25 37 0 17 223 242 299 302 l54 42 30 -29 30 -30
-21 -30z m5120 0 c-31 -42 -284 -284 -315 -301 -25 -13 -29 -13 -52 9 -14 13
-25 30 -25 37 0 17 223 242 299 302 l54 42 30 -29 30 -30 -21 -30z m5120 0
c-31 -42 -284 -284 -315 -301 -25 -13 -29 -13 -52 9 -14 13 -25 30 -25 37 0
17 223 242 299 302 l54 42 30 -29 30 -30 -21 -30z m5120 0 c-31 -42 -284 -284
-315 -301 -25 -13 -29 -13 -52 9 -14 13 -25 30 -25 37 0 17 223 242 299 302
l54 42 30 -29 30 -30 -21 -30z m5120 0 c-31 -42 -284 -284 -315 -301 -25 -13
-29 -13 -52 9 -14 13 -25 30 -25 37 0 17 223 242 299 302 l54 42 30 -29 30
-30 -21 -30z m5120 0 c-31 -42 -284 -284 -315 -301 -25 -13 -29 -13 -52 9 -14
13 -25 30 -25 37 0 17 223 242 299 302 l54 42 30 -29 30 -30 -21 -30z m5120 0
c-31 -42 -284 -284 -315 -301 -25 -13 -29 -13 -52 9 -14 13 -25 30 -25 37 0
17 223 242 299 302 l54 42 30 -29 30 -30 -21 -30z m5120 0 c-31 -42 -284 -284
-315 -301 -25 -13 -29 -13 -52 9 -14 13 -25 30 -25 37 0 17 223 242 299 302
l54 42 30 -29 30 -30 -21 -30z m5120 0 c-31 -42 -284 -284 -315 -301 -25 -13
-29 -13 -52 9 -14 13 -25 30 -25 37 0 17 223 242 299 302 l54 42 30 -29 30
-30 -21 -30z m5120 0 c-31 -42 -284 -284 -315 -301 -25 -13 -29 -13 -52 9 -14
13 -25 30 -25 37 0 17 223 242 299 302 l54 42 30 -29 30 -30 -21 -30z m5120 0
c-31 -42 -284 -284 -315 -301 -25 -13 -29 -13 -52 9 -14 13 -25 30 -25 37 0
17 223 242 299 302 l54 42 30 -29 30 -30 -21 -30z m5120 0 c-31 -42 -284 -284
-315 -301 -25 -13 -29 -13 -52 9 -14 13 -25 30 -25 37 0 17 223 242 299 302
l54 42 30 -29 30 -30 -21 -30z m-53857 0 c107 -94 255 -247 255 -264 0 -15
-40 -58 -55 -58 -22 0 -239 201 -317 293 l-41 48 29 30 c15 16 30 29 34 29 3
0 46 -35 95 -78z m5120 0 c107 -94 255 -247 255 -264 0 -15 -40 -58 -55 -58
-22 0 -239 201 -317 293 l-41 48 29 30 c15 16 30 29 34 29 3 0 46 -35 95 -78z
m5120 0 c107 -94 255 -247 255 -264 0 -15 -40 -58 -55 -58 -22 0 -239 201
-317 293 l-41 48 29 30 c15 16 30 29 34 29 3 0 46 -35 95 -78z m5120 0 c107
-94 255 -247 255 -264 0 -15 -40 -58 -55 -58 -22 0 -239 201 -317 293 l-41 48
29 30 c15 16 30 29 34 29 3 0 46 -35 95 -78z m5120 0 c107 -94 255 -247 255
-264 0 -15 -40 -58 -55 -58 -22 0 -239 201 -317 293 l-41 48 29 30 c15 16 30
29 34 29 3 0 46 -35 95 -78z m5120 0 c107 -94 255 -247 255 -264 0 -15 -40
-58 -55 -58 -22 0 -239 201 -317 293 l-41 48 29 30 c15 16 30 29 34 29 3 0 46
-35 95 -78z m5120 0 c107 -94 255 -247 255 -264 0 -15 -40 -58 -55 -58 -22 0
-239 201 -317 293 l-41 48 29 30 c15 16 30 29 34 29 3 0 46 -35 95 -78z m5120
0 c107 -94 255 -247 255 -264 0 -15 -40 -58 -55 -58 -22 0 -239 201 -317 293
l-41 48 29 30 c15 16 30 29 34 29 3 0 46 -35 95 -78z m5120 0 c107 -94 255
-247 255 -264 0 -15 -40 -58 -55 -58 -22 0 -239 201 -317 293 l-41 48 29 30
c15 16 30 29 34 29 3 0 46 -35 95 -78z m5120 0 c107 -94 255 -247 255 -264 0
-15 -40 -58 -55 -58 -22 0 -239 201 -317 293 l-41 48 29 30 c15 16 30 29 34
29 3 0 46 -35 95 -78z m5120 0 c107 -94 255 -247 255 -264 0 -15 -40 -58 -55
-58 -22 0 -239 201 -317 293 l-41 48 29 30 c15 16 30 29 34 29 3 0 46 -35 95
-78z m5120 0 c107 -94 255 -247 255 -264 0 -15 -40 -58 -55 -58 -22 0 -239
201 -317 293 l-41 48 29 30 c15 16 30 29 34 29 3 0 46 -35 95 -78z m-59291
-1567 c-44 -147 -56 -413 -28 -620 l16 -120 -46 -183 c-26 -101 -60 -227 -77
-280 -41 -127 -112 -266 -154 -297 -84 -65 -271 1 -437 154 -88 81 -101 107
-101 196 1 133 53 221 241 411 74 74 171 186 229 264 117 157 353 499 353 512
0 4 4 8 9 8 5 0 3 -20 -5 -45z m3276 37 c0 -13 236 -355 353 -512 57 -77 154
-189 225 -260 170 -171 219 -245 241 -365 17 -90 0 -150 -57 -208 -119 -123
-270 -208 -379 -215 -85 -6 -115 18 -176 135 -54 105 -91 218 -154 470 -46
186 -46 187 -33 257 21 119 25 375 6 503 -9 61 -23 132 -30 157 -8 25 -10 46
-5 46 5 0 9 -4 9 -8z m1844 -37 c-44 -147 -56 -413 -28 -620 l16 -120 -46
-183 c-26 -101 -60 -227 -77 -280 -41 -127 -112 -266 -154 -297 -84 -65 -271
1 -437 154 -88 81 -101 107 -101 196 1 133 53 221 241 411 74 74 171 186 229
264 117 157 353 499 353 512 0 4 4 8 9 8 5 0 3 -20 -5 -45z m3276 37 c0 -13
236 -355 353 -512 57 -77 154 -189 225 -260 170 -171 219 -245 241 -365 17
-90 0 -150 -57 -208 -119 -123 -270 -208 -379 -215 -85 -6 -115 18 -176 135
-54 105 -91 218 -154 470 -46 186 -46 187 -33 257 21 119 25 375 6 503 -9 61
-23 132 -30 157 -8 25 -10 46 -5 46 5 0 9 -4 9 -8z m1844 -37 c-44 -147 -56
-413 -28 -620 l16 -120 -46 -183 c-26 -101 -60 -227 -77 -280 -41 -127 -112
-266 -154 -297 -84 -65 -271 1 -437 154 -88 81 -101 107 -101 196 1 133 53
221 241 411 74 74 171 186 229 264 117 157 353 499 353 512 0 4 4 8 9 8 5 0 3
-20 -5 -45z m3276 37 c0 -13 236 -355 353 -512 57 -77 154 -189 225 -260 170
-171 219 -245 241 -365 17 -90 0 -150 -57 -208 -119 -123 -270 -208 -379 -215
-85 -6 -115 18 -176 135 -54 105 -91 218 -154 470 -46 186 -46 187 -33 257 21
119 25 375 6 503 -9 61 -23 132 -30 157 -8 25 -10 46 -5 46 5 0 9 -4 9 -8z
m1844 -37 c-44 -147 -56 -413 -28 -620 l16 -120 -46 -183 c-26 -101 -60 -227
-77 -280 -41 -127 -112 -266 -154 -297 -84 -65 -271 1 -437 154 -88 81 -101
107 -101 196 1 133 53 221 241 411 74 74 171 186 229 264 117 157 353 499 353
512 0 4 4 8 9 8 5 0 3 -20 -5 -45z m3276 37 c0 -13 236 -355 353 -512 57 -77
154 -189 225 -260 170 -171 219 -245 241 -365 17 -90 0 -150 -57 -208 -119
-123 -270 -208 -379 -215 -85 -6 -115 18 -176 135 -54 105 -91 218 -154 470
-46 186 -46 187 -33 257 21 119 25 375 6 503 -9 61 -23 132 -30 157 -8 25 -10
46 -5 46 5 0 9 -4 9 -8z m1844 -37 c-44 -147 -56 -413 -28 -620 l16 -120 -46
-183 c-26 -101 -60 -227 -77 -280 -41 -127 -112 -266 -154 -297 -84 -65 -271
1 -437 154 -88 81 -101 107 -101 196 1 133 53 221 241 411 74 74 171 186 229
264 117 157 353 499 353 512 0 4 4 8 9 8 5 0 3 -20 -5 -45z m3276 37 c0 -13
236 -355 353 -512 57 -77 154 -189 225 -260 170 -171 219 -245 241 -365 17
-90 0 -150 -57 -208 -119 -123 -270 -208 -379 -215 -85 -6 -115 18 -176 135
-54 105 -91 218 -154 470 -46 186 -46 187 -33 257 21 119 25 375 6 503 -9 61
-23 132 -30 157 -8 25 -10 46 -5 46 5 0 9 -4 9 -8z m1844 -37 c-44 -147 -56
-413 -28 -620 l16 -120 -46 -183 c-26 -101 -60 -227 -77 -280 -41 -127 -112
-266 -154 -297 -84 -65 -271 1 -437 154 -88 81 -101 107 -101 196 1 133 53
221 241 411 74 74 171 186 229 264 117 157 353 499 353 512 0 4 4 8 9 8 5 0 3
-20 -5 -45z m3276 37 c0 -13 236 -355 353 -512 57 -77 154 -189 225 -260 170
-171 219 -245 241 -365 17 -90 0 -150 -57 -208 -119 -123 -270 -208 -379 -215
-85 -6 -115 18 -176 135 -54 105 -91 218 -154 470 -46 186 -46 187 -33 257 21
119 25 375 6 503 -9 61 -23 132 -30 157 -8 25 -10 46 -5 46 5 0 9 -4 9 -8z
m1844 -37 c-44 -147 -56 -413 -28 -620 l16 -120 -46 -183 c-26 -101 -60 -227
-77 -280 -41 -127 -112 -266 -154 -297 -84 -65 -271 1 -437 154 -88 81 -101
107 -101 196 1 133 53 221 241 411 74 74 171 186 229 264 117 157 353 499 353
512 0 4 4 8 9 8 5 0 3 -20 -5 -45z m3276 37 c0 -13 236 -355 353 -512 57 -77
154 -189 225 -260 170 -171 219 -245 241 -365 17 -90 0 -150 -57 -208 -119
-123 -270 -208 -379 -215 -85 -6 -115 18 -176 135 -54 105 -91 218 -154 470
-46 186 -46 187 -33 257 21 119 25 375 6 503 -9 61 -23 132 -30 157 -8 25 -10
46 -5 46 5 0 9 -4 9 -8z m1844 -37 c-44 -147 -56 -413 -28 -620 l16 -120 -46
-183 c-26 -101 -60 -227 -77 -280 -41 -127 -112 -266 -154 -297 -84 -65 -271
1 -437 154 -88 81 -101 107 -101 196 1 133 53 221 241 411 74 74 171 186 229
264 117 157 353 499 353 512 0 4 4 8 9 8 5 0 3 -20 -5 -45z m3276 37 c0 -13
236 -355 353 -512 57 -77 154 -189 225 -260 170 -171 219 -245 241 -365 17
-90 0 -150 -57 -208 -119 -123 -270 -208 -379 -215 -85 -6 -115 18 -176 135
-54 105 -91 218 -154 470 -46 186 -46 187 -33 257 21 119 25 375 6 503 -9 61
-23 132 -30 157 -8 25 -10 46 -5 46 5 0 9 -4 9 -8z m1844 -37 c-44 -147 -56
-413 -28 -620 l16 -120 -46 -183 c-26 -101 -60 -227 -77 -280 -41 -127 -112
-266 -154 -297 -84 -65 -271 1 -437 154 -88 81 -101 107 -101 196 1 133 53
221 241 411 74 74 171 186 229 264 117 157 353 499 353 512 0 4 4 8 9 8 5 0 3
-20 -5 -45z m3276 37 c0 -13 236 -355 353 -512 57 -77 154 -189 225 -260 170
-171 219 -245 241 -365 17 -90 0 -150 -57 -208 -119 -123 -270 -208 -379 -215
-85 -6 -115 18 -176 135 -54 105 -91 218 -154 470 -46 186 -46 187 -33 257 21
119 25 375 6 503 -9 61 -23 132 -30 157 -8 25 -10 46 -5 46 5 0 9 -4 9 -8z
m1844 -37 c-44 -147 -56 -413 -28 -620 l16 -120 -46 -183 c-26 -101 -60 -227
-77 -280 -41 -127 -112 -266 -154 -297 -84 -65 -271 1 -437 154 -88 81 -101
107 -101 196 1 133 53 221 241 411 74 74 171 186 229 264 117 157 353 499 353
512 0 4 4 8 9 8 5 0 3 -20 -5 -45z m3276 37 c0 -13 236 -355 353 -512 57 -77
154 -189 225 -260 170 -171 219 -245 241 -365 17 -90 0 -150 -57 -208 -119
-123 -270 -208 -379 -215 -85 -6 -115 18 -176 135 -54 105 -91 218 -154 470
-46 186 -46 187 -33 257 21 119 25 375 6 503 -9 61 -23 132 -30 157 -8 25 -10
46 -5 46 5 0 9 -4 9 -8z m1844 -37 c-44 -147 -56 -413 -28 -620 l16 -120 -46
-183 c-26 -101 -60 -227 -77 -280 -41 -127 -112 -266 -154 -297 -84 -65 -271
1 -437 154 -88 81 -101 107 -101 196 1 133 53 221 241 411 74 74 171 186 229
264 117 157 353 499 353 512 0 4 4 8 9 8 5 0 3 -20 -5 -45z m3276 37 c0 -13
236 -355 353 -512 57 -77 154 -189 225 -260 170 -171 219 -245 241 -365 17
-90 0 -150 -57 -208 -119 -123 -270 -208 -379 -215 -85 -6 -115 18 -176 135
-54 105 -91 218 -154 470 -46 186 -46 187 -33 257 21 119 25 375 6 503 -9 61
-23 132 -30 157 -8 25 -10 46 -5 46 5 0 9 -4 9 -8z m1844 -37 c-44 -147 -56
-413 -28 -620 l16 -120 -46 -183 c-26 -101 -60 -227 -77 -280 -41 -127 -112
-266 -154 -297 -84 -65 -271 1 -437 154 -88 81 -101 107 -101 196 1 133 53
221 241 411 74 74 171 186 229 264 117 157 353 499 353 512 0 4 4 8 9 8 5 0 3
-20 -5 -45z m3276 37 c0 -13 236 -355 353 -512 57 -77 154 -189 225 -260 170
-171 219 -245 241 -365 17 -90 0 -150 -57 -208 -119 -123 -270 -208 -379 -215
-85 -6 -115 18 -176 135 -54 105 -91 218 -154 470 -46 186 -46 187 -33 257 21
119 25 375 6 503 -9 61 -23 132 -30 157 -8 25 -10 46 -5 46 5 0 9 -4 9 -8z
m-60411 -1383 c57 -87 195 -178 322 -210 55 -14 62 -31 30 -70 -17 -21 -29
-24 -104 -27 -71 -3 -91 -1 -127 18 -92 47 -165 139 -190 242 -11 41 -10 51 4
73 9 14 20 25 25 25 4 0 22 -23 40 -51z m4967 26 c43 -66 -52 -238 -171 -306
-42 -24 -61 -29 -122 -29 -39 0 -83 4 -97 10 -30 11 -64 68 -44 74 7 3 38 12
68 22 130 40 246 119 301 203 18 28 36 51 40 51 5 0 16 -11 25 -25z m153 -26
c57 -87 195 -178 322 -210 55 -14 62 -31 30 -70 -17 -21 -29 -24 -104 -27 -71
-3 -91 -1 -127 18 -92 47 -165 139 -190 242 -11 41 -10 51 4 73 9 14 20 25 25
25 4 0 22 -23 40 -51z m4967 26 c43 -66 -52 -238 -171 -306 -42 -24 -61 -29
-122 -29 -39 0 -83 4 -97 10 -30 11 -64 68 -44 74 7 3 38 12 68 22 130 40 246
119 301 203 18 28 36 51 40 51 5 0 16 -11 25 -25z m153 -26 c57 -87 195 -178
322 -210 55 -14 62 -31 30 -70 -17 -21 -29 -24 -104 -27 -71 -3 -91 -1 -127
18 -92 47 -165 139 -190 242 -11 41 -10 51 4 73 9 14 20 25 25 25 4 0 22 -23
40 -51z m4967 26 c43 -66 -52 -238 -171 -306 -42 -24 -61 -29 -122 -29 -39 0
-83 4 -97 10 -30 11 -64 68 -44 74 7 3 38 12 68 22 130 40 246 119 301 203 18
28 36 51 40 51 5 0 16 -11 25 -25z m153 -26 c57 -87 195 -178 322 -210 55 -14
62 -31 30 -70 -17 -21 -29 -24 -104 -27 -71 -3 -91 -1 -127 18 -92 47 -165
139 -190 242 -11 41 -10 51 4 73 9 14 20 25 25 25 4 0 22 -23 40 -51z m4967
26 c43 -66 -52 -238 -171 -306 -42 -24 -61 -29 -122 -29 -39 0 -83 4 -97 10
-30 11 -64 68 -44 74 7 3 38 12 68 22 130 40 246 119 301 203 18 28 36 51 40
51 5 0 16 -11 25 -25z m153 -26 c57 -87 195 -178 322 -210 55 -14 62 -31 30
-70 -17 -21 -29 -24 -104 -27 -71 -3 -91 -1 -127 18 -92 47 -165 139 -190 242
-11 41 -10 51 4 73 9 14 20 25 25 25 4 0 22 -23 40 -51z m4967 26 c43 -66 -52
-238 -171 -306 -42 -24 -61 -29 -122 -29 -39 0 -83 4 -97 10 -30 11 -64 68
-44 74 7 3 38 12 68 22 130 40 246 119 301 203 18 28 36 51 40 51 5 0 16 -11
25 -25z m153 -26 c57 -87 195 -178 322 -210 55 -14 62 -31 30 -70 -17 -21 -29
-24 -104 -27 -71 -3 -91 -1 -127 18 -92 47 -165 139 -190 242 -11 41 -10 51 4
73 9 14 20 25 25 25 4 0 22 -23 40 -51z m4967 26 c43 -66 -52 -238 -171 -306
-42 -24 -61 -29 -122 -29 -39 0 -83 4 -97 10 -30 11 -64 68 -44 74 7 3 38 12
68 22 130 40 246 119 301 203 18 28 36 51 40 51 5 0 16 -11 25 -25z m153 -26
c57 -87 195 -178 322 -210 55 -14 62 -31 30 -70 -17 -21 -29 -24 -104 -27 -71
-3 -91 -1 -127 18 -92 47 -165 139 -190 242 -11 41 -10 51 4 73 9 14 20 25 25
25 4 0 22 -23 40 -51z m4967 26 c43 -66 -52 -238 -171 -306 -42 -24 -61 -29
-122 -29 -39 0 -83 4 -97 10 -30 11 -64 68 -44 74 7 3 38 12 68 22 130 40 246
119 301 203 18 28 36 51 40 51 5 0 16 -11 25 -25z m153 -26 c57 -87 195 -178
322 -210 55 -14 62 -31 30 -70 -17 -21 -29 -24 -104 -27 -71 -3 -91 -1 -127
18 -92 47 -165 139 -190 242 -11 41 -10 51 4 73 9 14 20 25 25 25 4 0 22 -23
40 -51z m4967 26 c43 -66 -52 -238 -171 -306 -42 -24 -61 -29 -122 -29 -39 0
-83 4 -97 10 -30 11 -64 68 -44 74 7 3 38 12 68 22 130 40 246 119 301 203 18
28 36 51 40 51 5 0 16 -11 25 -25z m153 -26 c57 -87 195 -178 322 -210 55 -14
62 -31 30 -70 -17 -21 -29 -24 -104 -27 -71 -3 -91 -1 -127 18 -92 47 -165
139 -190 242 -11 41 -10 51 4 73 9 14 20 25 25 25 4 0 22 -23 40 -51z m4967
26 c43 -66 -52 -238 -171 -306 -42 -24 -61 -29 -122 -29 -39 0 -83 4 -97 10
-30 11 -64 68 -44 74 7 3 38 12 68 22 130 40 246 119 301 203 18 28 36 51 40
51 5 0 16 -11 25 -25z m153 -26 c57 -87 195 -178 322 -210 55 -14 62 -31 30
-70 -17 -21 -29 -24 -104 -27 -71 -3 -91 -1 -127 18 -92 47 -165 139 -190 242
-11 41 -10 51 4 73 9 14 20 25 25 25 4 0 22 -23 40 -51z m4967 26 c43 -66 -52
-238 -171 -306 -42 -24 -61 -29 -122 -29 -39 0 -83 4 -97 10 -30 11 -64 68
-44 74 7 3 38 12 68 22 130 40 246 119 301 203 18 28 36 51 40 51 5 0 16 -11
25 -25z m153 -26 c57 -87 195 -178 322 -210 55 -14 62 -31 30 -70 -17 -21 -29
-24 -104 -27 -71 -3 -91 -1 -127 18 -92 47 -165 139 -190 242 -11 41 -10 51 4
73 9 14 20 25 25 25 4 0 22 -23 40 -51z m4967 26 c43 -66 -52 -238 -171 -306
-42 -24 -61 -29 -122 -29 -39 0 -83 4 -97 10 -30 11 -64 68 -44 74 7 3 38 12
68 22 130 40 246 119 301 203 18 28 36 51 40 51 5 0 16 -11 25 -25z m153 -26
c57 -87 195 -178 322 -210 55 -14 62 -31 30 -70 -17 -21 -29 -24 -104 -27 -71
-3 -91 -1 -127 18 -92 47 -165 139 -190 242 -11 41 -10 51 4 73 9 14 20 25 25
25 4 0 22 -23 40 -51z m4967 26 c43 -66 -52 -238 -171 -306 -42 -24 -61 -29
-122 -29 -39 0 -83 4 -97 10 -30 11 -64 68 -44 74 7 3 38 12 68 22 130 40 246
119 301 203 18 28 36 51 40 51 5 0 16 -11 25 -25z m-59267 -60 c89 -21 184
-70 226 -116 59 -66 45 -105 -63 -168 -164 -96 -320 -96 -487 1 -80 47 -145
104 -145 129 0 51 119 127 240 153 86 19 151 19 229 1z m5120 0 c89 -21 184
-70 226 -116 59 -66 45 -105 -63 -168 -164 -96 -320 -96 -487 1 -80 47 -145
104 -145 129 0 51 119 127 240 153 86 19 151 19 229 1z m5120 0 c89 -21 184
-70 226 -116 59 -66 45 -105 -63 -168 -164 -96 -320 -96 -487 1 -80 47 -145
104 -145 129 0 51 119 127 240 153 86 19 151 19 229 1z m5120 0 c89 -21 184
-70 226 -116 59 -66 45 -105 -63 -168 -164 -96 -320 -96 -487 1 -80 47 -145
104 -145 129 0 51 119 127 240 153 86 19 151 19 229 1z m5120 0 c89 -21 184
-70 226 -116 59 -66 45 -105 -63 -168 -164 -96 -320 -96 -487 1 -80 47 -145
104 -145 129 0 51 119 127 240 153 86 19 151 19 229 1z m5120 0 c89 -21 184
-70 226 -116 59 -66 45 -105 -63 -168 -164 -96 -320 -96 -487 1 -80 47 -145
104 -145 129 0 51 119 127 240 153 86 19 151 19 229 1z m5120 0 c89 -21 184
-70 226 -116 59 -66 45 -105 -63 -168 -164 -96 -320 -96 -487 1 -80 47 -145
104 -145 129 0 51 119 127 240 153 86 19 151 19 229 1z m5120 0 c89 -21 184
-70 226 -116 59 -66 45 -105 -63 -168 -164 -96 -320 -96 -487 1 -80 47 -145
104 -145 129 0 51 119 127 240 153 86 19 151 19 229 1z m5120 0 c89 -21 184
-70 226 -116 59 -66 45 -105 -63 -168 -164 -96 -320 -96 -487 1 -80 47 -145
104 -145 129 0 51 119 127 240 153 86 19 151 19 229 1z m5120 0 c89 -21 184
-70 226 -116 59 -66 45 -105 -63 -168 -164 -96 -320 -96 -487 1 -80 47 -145
104 -145 129 0 51 119 127 240 153 86 19 151 19 229 1z m5120 0 c89 -21 184
-70 226 -116 59 -66 45 -105 -63 -168 -164 -96 -320 -96 -487 1 -80 47 -145
104 -145 129 0 51 119 127 240 153 86 19 151 19 229 1z m5120 0 c89 -21 184
-70 226 -116 59 -66 45 -105 -63 -168 -164 -96 -320 -96 -487 1 -80 47 -145
104 -145 129 0 51 119 127 240 153 86 19 151 19 229 1z m-55183 -16 c119 -36
194 -92 194 -144 0 -32 -98 -120 -174 -156 -85 -40 -176 -55 -252 -41 -113 20
-258 89 -291 138 -16 24 -16 28 1 59 18 34 72 77 136 110 107 56 268 70 386
34z m5120 0 c119 -36 194 -92 194 -144 0 -32 -98 -120 -174 -156 -85 -40 -176
-55 -252 -41 -113 20 -258 89 -291 138 -16 24 -16 28 1 59 18 34 72 77 136
110 107 56 268 70 386 34z m5120 0 c119 -36 194 -92 194 -144 0 -32 -98 -120
-174 -156 -85 -40 -176 -55 -252 -41 -113 20 -258 89 -291 138 -16 24 -16 28
1 59 18 34 72 77 136 110 107 56 268 70 386 34z m5120 0 c119 -36 194 -92 194
-144 0 -32 -98 -120 -174 -156 -85 -40 -176 -55 -252 -41 -113 20 -258 89
-291 138 -16 24 -16 28 1 59 18 34 72 77 136 110 107 56 268 70 386 34z m5120
0 c119 -36 194 -92 194 -144 0 -32 -98 -120 -174 -156 -85 -40 -176 -55 -252
-41 -113 20 -258 89 -291 138 -16 24 -16 28 1 59 18 34 72 77 136 110 107 56
268 70 386 34z m5120 0 c119 -36 194 -92 194 -144 0 -32 -98 -120 -174 -156
-85 -40 -176 -55 -252 -41 -113 20 -258 89 -291 138 -16 24 -16 28 1 59 18 34
72 77 136 110 107 56 268 70 386 34z m5120 0 c119 -36 194 -92 194 -144 0 -32
-98 -120 -174 -156 -85 -40 -176 -55 -252 -41 -113 20 -258 89 -291 138 -16
24 -16 28 1 59 18 34 72 77 136 110 107 56 268 70 386 34z m5120 0 c119 -36
194 -92 194 -144 0 -32 -98 -120 -174 -156 -85 -40 -176 -55 -252 -41 -113 20
-258 89 -291 138 -16 24 -16 28 1 59 18 34 72 77 136 110 107 56 268 70 386
34z m5120 0 c119 -36 194 -92 194 -144 0 -32 -98 -120 -174 -156 -85 -40 -176
-55 -252 -41 -113 20 -258 89 -291 138 -16 24 -16 28 1 59 18 34 72 77 136
110 107 56 268 70 386 34z m5120 0 c119 -36 194 -92 194 -144 0 -32 -98 -120
-174 -156 -85 -40 -176 -55 -252 -41 -113 20 -258 89 -291 138 -16 24 -16 28
1 59 18 34 72 77 136 110 107 56 268 70 386 34z m5120 0 c119 -36 194 -92 194
-144 0 -32 -98 -120 -174 -156 -85 -40 -176 -55 -252 -41 -113 20 -258 89
-291 138 -16 24 -16 28 1 59 18 34 72 77 136 110 107 56 268 70 386 34z m5120
0 c119 -36 194 -92 194 -144 0 -32 -98 -120 -174 -156 -85 -40 -176 -55 -252
-41 -113 20 -258 89 -291 138 -16 24 -16 28 1 59 18 34 72 77 136 110 107 56
268 70 386 34z"/>
<path d="M2453 3156 c-96 -31 -148 -86 -177 -185 -13 -45 -16 -116 -16 -417 0
-325 2 -368 19 -422 25 -81 62 -126 129 -159 50 -25 68 -28 152 -28 84 0 102
3 152 28 67 33 104 78 129 159 17 54 19 97 19 423 0 326 -2 369 -19 423 -38
125 -121 183 -265 189 -50 2 -97 -2 -123 -11z m163 -217 c18 -20 19 -41 19
-384 0 -343 -1 -364 -19 -384 -26 -29 -86 -29 -112 0 -18 20 -19 41 -19 384 0
343 1 364 19 384 13 14 31 21 56 21 25 0 43 -7 56 -21z"/>
<path d="M7687 3137 c-25 -62 -57 -89 -125 -102 l-57 -12 0 -79 0 -79 67 -3
68 -3 2 -442 3 -442 105 0 105 0 0 600 0 600 -75 3 -75 3 -18 -44z"/>
<path d="M12690 3175 c-61 -19 -115 -67 -147 -129 -23 -44 -27 -67 -31 -163
-3 -81 -1 -117 8 -128 16 -19 170 -21 188 -3 7 7 12 43 12 91 0 107 16 137 77
137 59 0 81 -52 69 -158 -12 -101 -52 -169 -184 -317 -141 -157 -174 -236
-170 -413 l3 -117 269 -3 c190 -2 273 1 282 9 18 15 20 169 2 187 -8 8 -62 12
-175 12 -140 0 -163 2 -163 15 0 34 54 116 145 220 106 121 156 196 188 283
18 47 22 78 22 177 0 111 -2 124 -27 171 -35 66 -85 109 -150 129 -63 18 -157
18 -218 0z"/>
<path d="M17810 3155 c-108 -34 -170 -126 -178 -267 -6 -115 -3 -118 102 -118
50 0 87 5 94 12 7 7 12 36 12 66 0 81 21 112 77 112 59 0 78 -45 71 -170 -5
-91 -17 -103 -106 -110 l-67 -5 -3 -88 c-2 -57 1 -94 9 -103 7 -9 31 -14 61
-14 62 0 83 -11 97 -51 14 -41 14 -189 0 -226 -13 -34 -25 -43 -65 -43 -56 0
-68 19 -72 112 -2 45 -9 89 -14 96 -14 16 -169 17 -186 0 -19 -19 -15 -176 5
-239 25 -76 91 -142 162 -163 124 -36 249 -12 321 63 68 70 83 126 78 299 -4
148 -16 189 -71 241 l-26 23 34 34 c51 51 69 122 63 253 -5 123 -31 187 -95
240 -69 58 -201 77 -303 46z"/>
<path d="M22737 2791 l-168 -399 3 -99 3 -98 172 -3 172 -2 3 -103 3 -102 105
0 105 0 3 103 3 102 32 0 c49 0 57 14 57 105 0 91 -8 105 -57 105 l-33 0 -2
393 -3 392 -115 3 -115 2 -168 -399z m183 -241 l0 -150 -66 0 c-59 0 -65 2
-59 18 23 61 118 282 121 282 2 0 4 -67 4 -150z"/>
<path d="M27900 3173 c0 -16 -7 -171 -16 -346 -9 -175 -13 -324 -10 -333 5
-12 24 -14 103 -12 l98 3 7 55 c9 62 33 90 78 90 19 0 36 -9 50 -27 20 -26 21
-36 18 -206 -3 -163 -5 -180 -22 -193 -26 -19 -81 -18 -100 1 -17 18 -25 55
-29 140 l-2 60 -88 3 c-120 4 -121 3 -115 -123 6 -122 31 -189 91 -241 73 -61
196 -81 308 -48 40 12 66 28 101 65 73 75 80 112 76 387 l-3 227 -30 55 c-41
74 -95 105 -185 105 -42 -1 -76 -7 -97 -18 l-33 -18 0 73 c0 126 -10 118 155
118 110 0 145 3 154 14 8 9 11 46 9 103 l-3 88 -257 3 -258 2 0 -27z"/>
<path d="M33195 3210 c-87 -22 -142 -66 -176 -142 l-24 -53 0 -415 0 -415 24
-45 c32 -62 57 -87 116 -118 44 -24 61 -27 150 -27 89 0 106 3 150 27 59 31
84 56 116 118 23 43 24 53 24 270 0 222 0 226 -26 275 -15 30 -42 62 -68 80
-38 27 -50 30 -119 30 -64 0 -84 -4 -115 -24 l-39 -24 4 111 c4 129 16 152 78
152 49 0 70 -25 79 -92 l6 -53 100 0 100 0 -1 77 c-2 133 -64 226 -176 262
-52 17 -151 20 -203 6z m139 -636 c25 -24 28 -51 24 -204 -3 -157 -9 -170 -73
-170 -64 0 -70 13 -73 170 -2 79 -1 153 2 166 9 35 34 54 71 54 18 0 41 -7 49
-16z"/>
<path d="M38117 3213 c-13 -13 -8 -180 6 -192 8 -6 77 -12 178 -13 l165 -3
-128 -475 c-70 -261 -125 -485 -123 -497 5 -22 10 -23 108 -23 l103 0 137 514
c134 500 138 517 135 603 l-3 88 -286 3 c-157 1 -288 -1 -292 -5z"/>
<path d="M43393 3222 c-74 -27 -118 -64 -150 -129 -26 -55 -28 -66 -28 -188 0
-140 8 -169 62 -226 22 -24 22 -27 8 -39 -9 -8 -28 -37 -43 -64 -24 -46 -27
-64 -30 -183 -6 -206 30 -293 145 -349 51 -26 69 -29 153 -29 122 0 174 19
234 86 62 69 79 138 74 295 -4 126 -21 183 -67 232 l-22 22 29 38 c48 61 57
97 57 222 0 99 -3 122 -23 166 -28 61 -82 117 -137 140 -61 26 -198 29 -262 6z
m167 -202 c53 -29 53 -232 0 -260 -30 -16 -76 -12 -101 9 -22 18 -24 26 -24
119 0 84 3 103 19 121 21 23 74 28 106 11z m0 -490 c25 -13 40 -70 40 -150 0
-80 -15 -137 -40 -150 -32 -17 -85 -12 -106 11 -16 18 -19 37 -19 141 0 114 1
121 24 139 25 21 71 25 101 9z"/>
<path d="M48523 3232 c-74 -27 -118 -64 -150 -129 -27 -56 -28 -64 -31 -239
-4 -205 5 -269 47 -336 38 -60 86 -83 176 -83 56 0 77 5 108 24 l39 24 -4
-111 c-4 -129 -16 -152 -78 -152 -49 0 -70 25 -79 92 l-6 53 -100 0 -100 0 1
-77 c3 -185 121 -289 313 -275 126 9 199 54 242 149 l24 53 0 415 0 415 -27
51 c-50 94 -117 133 -243 140 -61 4 -92 0 -132 -14z m163 -206 c17 -13 19 -29
22 -156 4 -153 1 -180 -24 -204 -23 -23 -77 -20 -100 5 -16 18 -20 40 -22 146
-4 139 1 185 24 208 19 19 74 20 100 1z"/>
<path d="M53933 3256 c-96 -31 -148 -86 -177 -185 -13 -45 -16 -116 -16 -417
0 -325 2 -368 19 -422 25 -81 62 -126 129 -159 50 -25 68 -28 152 -28 84 0
102 3 152 28 67 33 104 78 129 159 17 54 19 97 19 423 0 326 -2 369 -19 423
-38 125 -121 183 -265 189 -50 2 -97 -2 -123 -11z m163 -217 c18 -20 19 -41
19 -384 0 -343 -1 -364 -19 -384 -26 -29 -86 -29 -112 0 -18 20 -19 41 -19
384 0 343 1 364 19 384 13 14 31 21 56 21 25 0 43 -7 56 -21z"/>
<path d="M53357 3217 c-25 -62 -57 -89 -125 -102 l-57 -12 0 -79 0 -79 67 -3
68 -3 2 -442 3 -442 105 0 105 0 0 600 0 600 -75 3 -75 3 -18 -44z"/>
<path d="M58537 3227 c-25 -62 -57 -89 -125 -102 l-57 -12 0 -79 0 -79 67 -3
68 -3 2 -442 3 -442 105 0 105 0 0 600 0 600 -75 3 -75 3 -18 -44z"/>
<path d="M59237 3227 c-25 -62 -57 -89 -125 -102 l-57 -12 0 -79 0 -79 67 -3
68 -3 2 -442 3 -442 105 0 105 0 0 600 0 600 -75 3 -75 3 -18 -44z"/>
</g>
</svg>
